<?xml version="1.0" encoding="UTF-8"?>
<svg id="Layer_1" data-name="Layer 1" xmlns="http://www.w3.org/2000/svg" viewBox="0 0 995.13 594.38">
  <defs>
    <style>
      .cls-1 {
        fill: #efc99a;
      }

      .cls-2 {
        fill: #19281d;
      }
    </style>
  </defs>
  <path class="cls-2" d="M764.4,548.98H234.74c-36.89-.41-75.66-35.58-86.58-78.47-23.34-95.91-46.67-191.82-70.01-287.73-10.91-42.85,19.81-89.12,69.21-100.06,232.13-50.1,472.3-50.1,704.42,0,49.39,10.94,80.12,57.21,69.21,100.06-23.34,95.91-46.67,191.82-70.01,287.73-10.92,42.9-49.69,78.06-86.58,78.47Z"/>
  <path class="cls-1" d="M762.44,556.1H232.74c-39.87-.44-81.71-38-93.35-83.73L69.36,184.56c-5.41-21.25-1.65-43.96,10.6-63.87,13.82-22.45,37.1-38.73,63.89-44.66,116.04-25.05,235.04-37.74,353.72-37.74s237.68,12.69,353.68,37.73c26.82,5.94,50.11,22.22,63.92,44.67,12.26,19.91,16.01,42.62,10.58,63.95l-69.99,287.66c-11.66,45.8-53.5,83.37-93.29,83.81h-.04ZM497.58,52c-117.2,0-234.37,12.56-350.75,37.68-23.08,5.11-43.13,19.09-54.97,38.33-10.26,16.66-13.43,35.55-8.94,53.18l70.03,287.8c10.16,39.92,46,72.77,79.87,73.14h529.54c33.86-.39,69.68-33.23,79.86-73.21l69.99-287.66c4.51-17.7,1.33-36.59-8.92-53.25-11.84-19.25-31.9-33.22-55.01-38.34-116.33-25.11-233.52-37.67-350.69-37.67Z"/>
  <g>
    <g>
      <path class="cls-1" d="M374.71,285.99c-7.87,0-15.34-1.39-22.42-4.18-7.08-2.79-13.34-6.78-18.77-11.97-5.44-5.19-9.73-11.39-12.87-18.61-3.14-7.21-4.71-15.25-4.71-24.1s1.57-16.81,4.71-24.02c3.14-7.21,7.43-13.42,12.87-18.61,5.44-5.19,11.7-9.2,18.77-12.01,7.08-2.81,14.55-4.22,22.42-4.22,6.72,0,12.49.69,17.3,2.05,4.81,1.37,9,3.09,12.58,5.16,3.58,2.08,6.85,4.26,9.8,6.56v23.86h-.74c0-6.23-1.69-12-5.08-17.3-3.39-5.3-7.79-9.56-13.2-12.79-6.12-3.71-13.01-5.57-20.66-5.57-8.2,0-15.29,1.71-21.27,5.12-5.98,3.42-10.92,7.91-14.8,13.49-3.88,5.57-6.75,11.71-8.61,18.41-1.86,6.7-2.79,13.32-2.79,19.88s.94,13.19,2.83,19.88c1.89,6.7,4.77,12.82,8.65,18.36,3.88,5.55,8.83,10.02,14.84,13.4,6.01,3.39,13.12,5.08,21.32,5.08,5.9,0,11.16-.76,15.78-2.3,4.62-1.53,8.74-3.52,12.38-5.98,3.63-2.46,6.85-5.19,9.63-8.2l1.72,2.05c-11.2,11.04-24.43,16.56-39.68,16.56Z"/>
      <path class="cls-1" d="M517.44,285.99c-5.69-.66-11.29-.98-16.8-.98s-11.34.33-16.97.98v-.66c3.39-.38,6.11-1.34,8.16-2.87,2.05-1.53,3.07-4.29,3.07-8.28v-40.42c0-5.68-1.86-10.74-5.57-15.17-3.72-4.43-8.03-6.64-12.95-6.64-5.74,0-10.86,1.07-15.37,3.2-4.51,2.13-8.98,5.3-13.4,9.51v49.52c0,4.04.89,6.84,2.66,8.4,1.78,1.56,4.63,2.47,8.57,2.75v.66c-5.69-.66-11.29-.98-16.81-.98s-11.34.33-16.97.98v-.66c3.39-.38,6.11-1.34,8.16-2.87,2.05-1.53,3.07-4.29,3.07-8.28v-91.33c0-2.68-.48-4.76-1.43-6.23-.96-1.48-2.27-2.58-3.93-3.32-1.67-.74-3.62-1.24-5.86-1.52v-.74c1.09.11,2.19.16,3.28.16,2.57,0,5.18-.23,7.83-.7,2.65-.46,5.26-.97,7.83-1.52l3.61-.74v53.21c3.06-3.06,6.15-5.79,9.26-8.2,3.12-2.4,6.28-4.32,9.51-5.74,3.22-1.42,6.56-2.13,10-2.13,5.79,0,10.93,1.07,15.41,3.2,4.48,2.13,8,5.3,10.57,9.51,2.57,4.21,3.85,9.43,3.85,15.66v40.42c0,4.04.89,6.84,2.66,8.4,1.78,1.56,4.63,2.47,8.57,2.75v.66Z"/>
      <path class="cls-1" d="M566.39,286.07c-5.47,0-10.66-.82-15.58-2.46-4.92-1.64-9.26-4.13-13.04-7.46-3.77-3.33-6.74-7.56-8.89-12.67-2.16-5.11-3.24-11.11-3.24-17.99,0-8.09,1.77-15.14,5.33-21.15,3.55-6.01,8.21-10.67,13.98-13.98,5.77-3.31,11.96-4.96,18.57-4.96,3.06,0,6.41.57,10.04,1.72,3.63,1.15,7.09,3.06,10.37,5.74,3.28,2.68,5.98,6.27,8.12,10.78,2.13,4.51,3.2,10.13,3.2,16.85l-.08,2.62h-58.21l-.08,2.38c0,4.48.57,8.98,1.72,13.49,1.15,4.51,2.91,8.64,5.29,12.38,2.38,3.74,5.44,6.76,9.18,9.06,3.74,2.3,8.18,3.44,13.32,3.44,3.71,0,7.28-.63,10.7-1.88,3.42-1.26,6.49-2.83,9.22-4.71,2.73-1.89,5-3.84,6.81-5.86l2.05,1.89c-3.77,4.1-8.16,7.26-13.16,9.47-5,2.21-10.21,3.32-15.62,3.32ZM576.14,240.98c1.91,0,3.47-.71,4.67-2.13,1.2-1.42,1.8-3.12,1.8-5.08,0-2.79-.36-5.68-1.07-8.69-.71-3.01-1.83-5.83-3.36-8.49-1.53-2.65-3.5-4.82-5.9-6.52-2.41-1.69-5.33-2.54-8.77-2.54-5.47,0-10.08,1.6-13.86,4.8-3.77,3.2-6.7,7.32-8.77,12.38-2.08,5.06-3.33,10.48-3.77,16.27h39.02Z"/>
      <path class="cls-1" d="M639.68,285.99c-5.68-.66-11.29-.98-16.81-.98s-11.34.33-16.97.98v-.66c3.39-.38,6.11-1.34,8.16-2.87,2.05-1.53,3.07-4.29,3.07-8.28v-65.91h-6.31v-2.87h6.31v-8.36c0-5.14,1.01-9.88,3.03-14.22,2.02-4.34,4.9-7.86,8.65-10.53,3.74-2.68,8.16-4.02,13.24-4.02,3.22,0,6.56.97,10,2.91,3.44,1.94,6.31,4.93,8.61,8.98l-6.72,15.33h-.74c.22-1.64.33-3.33.33-5.08,0-3.17-.4-6.3-1.19-9.39-.79-3.09-2.04-5.63-3.73-7.62-1.69-2-3.88-2.99-6.56-2.99-3.01,0-5.53,1.34-7.58,4.02-2.05,2.68-3.58,6.05-4.59,10.13-1.01,4.07-1.52,8.24-1.52,12.5v8.36h18.12v2.87h-18.12v65.91c0,4.04.9,6.84,2.71,8.4,1.8,1.56,4.67,2.47,8.61,2.75v.66Z"/>
      <path class="cls-1" d="M660.71,283.24c-1.83-1.83-2.75-4.06-2.75-6.68s.92-4.77,2.75-6.6c1.83-1.83,4.03-2.75,6.6-2.75s4.85.92,6.68,2.75c1.83,1.83,2.75,4.03,2.75,6.6s-.92,4.85-2.75,6.68c-1.83,1.83-4.06,2.75-6.68,2.75s-4.77-.92-6.6-2.75Z"/>
    </g>
    <g>
      <path class="cls-1" d="M260.35,408.27c-4.04-.33-8.14-.49-12.3-.49-3.5,0-6.91.16-10.25.49v-.74c2.24-.27,4.19-.78,5.86-1.52,1.67-.74,2.98-1.86,3.93-3.36.96-1.5,1.43-3.57,1.43-6.19v-94.12c0-2.68-.48-4.76-1.43-6.23-.96-1.48-2.27-2.58-3.93-3.32-1.67-.74-3.62-1.24-5.86-1.52v-.74c5.57.66,11.15.99,16.72.99s11.31-.33,17.05-.99v.74c-3.94.22-6.79,1.11-8.57,2.66-1.78,1.56-2.66,4.36-2.66,8.4v103.79h28.37c5.85,0,10.9-1.79,15.17-5.37,4.26-3.58,6.91-8.48,7.95-14.72h.74l-3.12,22.22h-49.11Z"/>
      <path class="cls-1" d="M360.86,408.27c-7.27,0-13.94-1.63-20-4.88-6.07-3.25-10.93-7.88-14.59-13.9-3.66-6.01-5.49-13.17-5.49-21.48s1.83-15.32,5.49-21.36c3.66-6.04,8.53-10.71,14.59-14.02,6.07-3.31,12.73-4.96,20-4.96s13.84,1.67,19.88,5c6.04,3.33,10.88,8.02,14.51,14.06,3.63,6.04,5.45,13.13,5.45,21.27s-1.82,15.38-5.45,21.4c-3.64,6.01-8.47,10.66-14.51,13.94-6.04,3.28-12.67,4.92-19.88,4.92ZM360.86,406.13c5.3,0,9.77-1.21,13.4-3.65,3.63-2.43,6.57-5.56,8.81-9.39,2.24-3.83,3.87-7.95,4.88-12.38,1.01-4.43,1.52-8.66,1.52-12.71s-.52-8.21-1.56-12.67c-1.04-4.45-2.68-8.61-4.92-12.46-2.24-3.85-5.19-7-8.85-9.43-3.66-2.43-8.09-3.65-13.28-3.65s-9.7,1.22-13.36,3.65c-3.66,2.43-6.63,5.58-8.89,9.43-2.27,3.85-3.92,8.01-4.96,12.46-1.04,4.45-1.56,8.68-1.56,12.67s.52,8.28,1.56,12.71c1.04,4.43,2.71,8.55,5,12.38,2.3,3.83,5.26,6.96,8.89,9.39,3.63,2.43,8.08,3.65,13.32,3.65Z"/>
      <path class="cls-1" d="M477.03,408.27v-16.07c-3.06,3.06-6.15,5.79-9.26,8.2-3.12,2.41-6.29,4.32-9.51,5.74-3.22,1.42-6.56,2.13-10,2.13-8.64,0-15.52-2.39-20.66-7.17-5.14-4.78-7.71-11.82-7.71-21.11v-37.71c0-2.62-.48-4.69-1.43-6.19-.96-1.5-2.27-2.62-3.93-3.36-1.67-.74-3.62-1.24-5.86-1.52v-.66c1.09.11,2.19.16,3.28.16,2.57,0,5.18-.23,7.83-.7,2.65-.46,5.26-.97,7.83-1.52l3.61-.74v52.22c0,3.77.74,7.33,2.21,10.66,1.48,3.33,3.5,6.03,6.07,8.08,2.57,2.05,5.49,3.07,8.77,3.07,5.74,0,10.86-1.07,15.37-3.2,4.51-2.13,8.98-5.3,13.4-9.51v-46.81c0-2.62-.48-4.69-1.43-6.19-.96-1.5-2.27-2.62-3.93-3.36-1.67-.74-3.62-1.24-5.86-1.52v-.66c1.09.11,2.19.16,3.28.16,2.62,0,5.29-.23,7.99-.7s5.31-.97,7.83-1.52l3.44-.74v66c0,3.94,1.02,6.67,3.07,8.2,2.05,1.53,4.77,2.49,8.16,2.87v.66c-1.09-.11-2.19-.17-3.28-.17-2.57,0-5.18.23-7.83.7-2.65.46-5.26.97-7.83,1.52l-3.61.74Z"/>
      <path class="cls-1" d="M633.2,473.03c-8.42,0-16.26-1.18-23.53-3.52-7.27-2.35-13.61-6.04-19.02-11.07-5.41-5.03-9.65-11.49-12.71-19.39-3.06-7.9-4.59-17.39-4.59-28.49,0-4.59.27-9.43.82-14.51,1.53-13.5,2.3-23.91,2.3-31.23,0-6.01-.52-11.2-1.56-15.58-2.4-10.11-8.64-15.17-18.69-15.17-4.7,0-9.17,1.18-13.4,3.52-4.24,2.35-8.4,5.47-12.5,9.35v49.52c0,4.04.9,6.84,2.7,8.4,1.8,1.56,4.65,2.45,8.53,2.66v.74c-5.74-.66-11.39-.98-16.97-.98s-11.23.33-16.81.98v-.74c2.24-.27,4.21-.78,5.9-1.52,1.69-.74,3.02-1.86,3.98-3.36.95-1.5,1.43-3.57,1.43-6.19v-54.19c0-2.68-.48-4.75-1.43-6.23-.96-1.48-2.28-2.58-3.98-3.32-1.69-.74-3.66-1.24-5.9-1.52v-.74c1.09.11,2.21.16,3.36.16,2.79,0,5.6-.25,8.44-.74,2.84-.49,5.6-1.07,8.28-1.72l2.46-.49v16.07c4.64-4.59,9.33-8.32,14.06-11.19,4.73-2.87,9.66-4.5,14.8-4.88l2.3-.08c9.51,0,16.29,3.65,20.33,10.95,4.04,7.3,6.07,18.19,6.07,32.67,0,7.49-.46,15.91-1.39,25.25-.49,5.19-.74,10.08-.74,14.67,0,11.09,1.3,20.45,3.89,28.08,2.6,7.63,6.11,13.74,10.54,18.36,4.43,4.62,9.48,7.97,15.17,10.04,5.68,2.08,11.64,3.12,17.87,3.12,4.43,0,8.77-.55,13.03-1.64,4.26-1.09,8.09-2.75,11.48-4.96,3.39-2.21,6.11-4.99,8.16-8.32,2.05-3.33,3.08-7.21,3.08-11.64,0-6.56-2.13-11.34-6.4-14.35-3.22-2.35-7.36-3.92-12.42-4.71-5.06-.79-10.53-1.19-16.44-1.19-7.33,0-13.17-.9-17.54-2.7-4.37-1.8-7.52-4.09-9.43-6.85-1.91-2.76-2.87-5.56-2.87-8.4.33-6.83,4.81-11.83,13.45-15-4.59-3.17-8.24-7.27-10.94-12.3-2.71-5.03-4.06-10.52-4.06-16.48,0-6.39,1.52-12.2,4.55-17.42,3.03-5.22,7.12-9.37,12.26-12.46,5.14-3.09,10.79-4.63,16.97-4.63,4.21,0,8.14.74,11.8,2.21l24.35-15.74,4.02.9c1.37,5.41,2.05,8.28,2.05,8.61,0,1.64-.9,2.82-2.7,3.53l-24.19,4.26c5.58,2.95,10.06,7.13,13.45,12.54,3.39,5.41,5.08,11.48,5.08,18.2,0,6.34-1.52,12.15-4.55,17.42-3.03,5.27-7.1,9.47-12.21,12.58-5.11,3.12-10.78,4.67-17.01,4.67-5.9,0-11.34-1.42-16.31-4.26-2.62.93-4.95,2.36-6.97,4.3-2.02,1.94-3.12,4.41-3.28,7.42,0,2.84,1.05,4.88,3.16,6.11,2.1,1.23,4.8,1.99,8.08,2.3,3.28.3,6.72.45,10.33.45h2.87c3.22,0,6.8.18,10.74.53,3.94.36,7.86,1.07,11.77,2.13,3.91,1.07,7.5,2.59,10.78,4.59,3.28,1.99,5.93,4.62,7.95,7.87,2.02,3.25,3.03,7.28,3.03,12.09,0,5.74-1.31,10.67-3.93,14.8-2.62,4.13-6.11,7.5-10.45,10.13-4.34,2.62-9.2,4.56-14.55,5.82-5.36,1.26-10.74,1.88-16.15,1.88ZM636.15,394.74c3.66,0,6.9-1.02,9.72-3.07,2.81-2.05,5.16-4.7,7.05-7.95,1.88-3.25,3.31-6.78,4.26-10.58.96-3.8,1.44-7.45,1.44-10.95s-.45-6.98-1.35-10.78c-.9-3.8-2.3-7.32-4.18-10.58s-4.24-5.9-7.05-7.95c-2.82-2.05-6.11-3.07-9.88-3.07-4.04,0-7.49,1.02-10.33,3.07s-5.16,4.7-6.97,7.95c-1.8,3.25-3.13,6.76-3.98,10.53-.85,3.77-1.27,7.38-1.27,10.82s.44,7.15,1.31,10.95c.87,3.8,2.23,7.32,4.06,10.58,1.83,3.25,4.17,5.9,7.01,7.95,2.84,2.05,6.23,3.07,10.16,3.07Z"/>
      <path class="cls-1" d="M726.01,408.35c-5.47,0-10.66-.82-15.58-2.46-4.92-1.64-9.26-4.13-13.04-7.46-3.77-3.33-6.74-7.56-8.89-12.67-2.16-5.11-3.24-11.11-3.24-17.99,0-8.09,1.77-15.14,5.33-21.15,3.55-6.01,8.21-10.67,13.98-13.98,5.77-3.31,11.96-4.96,18.57-4.96,3.06,0,6.41.57,10.04,1.72,3.63,1.15,7.09,3.06,10.37,5.74,3.28,2.68,5.98,6.27,8.12,10.78,2.13,4.51,3.2,10.13,3.2,16.85l-.08,2.62h-58.21l-.08,2.38c0,4.48.57,8.98,1.72,13.49,1.15,4.51,2.91,8.64,5.29,12.38,2.38,3.74,5.44,6.76,9.18,9.06,3.74,2.3,8.18,3.44,13.32,3.44,3.71,0,7.28-.63,10.7-1.88,3.42-1.26,6.49-2.83,9.22-4.71,2.73-1.89,5-3.84,6.81-5.86l2.05,1.89c-3.77,4.1-8.16,7.26-13.16,9.47-5,2.21-10.21,3.32-15.62,3.32ZM735.76,363.26c1.91,0,3.47-.71,4.67-2.13,1.2-1.42,1.8-3.12,1.8-5.08,0-2.79-.36-5.68-1.07-8.69-.71-3.01-1.83-5.83-3.36-8.49-1.53-2.65-3.5-4.82-5.9-6.52-2.41-1.69-5.33-2.54-8.77-2.54-5.47,0-10.08,1.6-13.86,4.8-3.77,3.2-6.7,7.32-8.77,12.38-2.08,5.06-3.33,10.48-3.77,16.27h39.02Z"/>
    </g>
  </g>
</svg>